<svg xmlns="http://www.w3.org/2000/svg" viewBox="0 0 78.94 87.71"><defs><style>.cls-1{fill:#fff;}</style></defs><title>registration</title><g id="Capa_2" data-name="Capa 2"><g id="Capa_1-2" data-name="Capa 1"><g id="Ticket_Icon" data-name="Ticket Icon"><g id="Ticket_Icon-2" data-name="Ticket Icon"><g id="Core"><g id="receipt"><path id="Shape" class="cls-1" d="M65.78,65.78H13.16V57H65.78v8.77Zm0-17.54H13.16V39.47H65.78v8.77Zm0-17.54H13.16V21.93H65.78V30.7ZM0,87.71l6.58-6.58,6.58,6.58,6.58-6.58,6.58,6.58,6.58-6.58,6.58,6.58L46,81.13l6.58,6.58,6.58-6.58,6.58,6.58,6.58-6.58,6.58,6.58V0L72.36,6.58,65.78,0,59.2,6.58,52.63,0,46,6.58,39.47,0,32.89,6.58,26.31,0,19.73,6.58,13.16,0,6.58,6.58,0,0V87.71Z"/></g></g></g></g></g></g></svg>